<?xml version="1.0" standalone="no"?>
<!DOCTYPE svg PUBLIC "-//W3C//DTD SVG 20010904//EN"
 "http://www.w3.org/TR/2001/REC-SVG-20010904/DTD/svg10.dtd">
<svg version="1.0" xmlns="http://www.w3.org/2000/svg"
 width="800.000000pt" height="800.000000pt" viewBox="0 0 800.000000 800.000000"
 preserveAspectRatio="xMidYMid meet">
<metadata>
Created by potrace 1.14, written by Peter Selinger 2001-2017
</metadata>
<g transform="translate(0.000000,800.000000) scale(0.100000,-0.100000)"
fill="#000000" stroke="none">
<path d="M0 4000 l0 -4000 4000 0 4000 0 0 4000 0 4000 -4000 0 -4000 0 0 
-4000z m2480 2011 c0 -45 -10 -51 -75 -51 -135 0 -293 -46 -363 -105 -117
-101 -162 -486 -162 -1407 l0 -448 1220 0 1220 0 0 378 c0 610 -20 1046 -56
1242 -46 249 -172 340 -476 340 -48 0 -68 4 -68 13 0 6 -3 22 -6 35 l-6 22
793 0 c914 0 938 -2 1284 -85 407 -98 613 -232 745 -486 107 -206 114 -512 16
-734 -105 -237 -404 -450 -784 -559 l-117 -34 50 -7 c274 -38 577 -145 768
-272 322 -214 488 -573 448 -968 -46 -450 -264 -721 -727 -905 -192 -77 -472
-129 -799 -150 -184 -12 -1657 -11 -1669 1 -3 3 -3 20 0 37 l7 32 81 0 c176 0
280 34 366 121 97 97 125 254 140 769 5 190 10 504 10 698 l0 352 -1220 0
-1220 0 0 -427 c1 -852 28 -1181 110 -1343 48 -93 186 -154 382 -167 101 -6
107 -10 108 -60 0 -10 -168 -13 -808 -13 l-808 0 4 35 4 35 82 0 c171 0 263
28 347 107 62 58 84 98 109 205 44 189 45 231 45 1688 0 1555 -1 1589 -68
1820 -17 61 -30 83 -67 121 -69 69 -226 119 -376 119 -67 0 -68 0 -78 43 l-6
27 810 0 c792 0 810 0 810 -19z"/>
<path d="M4886 5847 c-81 -84 -76 -19 -76 -896 0 -737 1 -781 18 -781 115 1
381 24 468 40 434 78 683 280 769 624 21 81 25 123 25 234 0 158 -14 228 -71
351 -32 69 -53 98 -121 165 -46 44 -112 98 -148 119 -174 100 -418 161 -729
182 l-94 6 -41 -44z"/>
<path d="M4813 3254 c4 -652 8 -821 21 -921 24 -187 67 -277 159 -337 l52 -35
140 9 c215 14 347 40 537 106 246 85 388 187 508 364 115 169 160 331 161 570
0 442 -200 742 -603 905 -208 83 -438 123 -761 132 l-219 6 5 -799z"/>
</g>
</svg>
